<mxfile host="app.diagrams.net" modified="2024-03-09T08:48:19.571Z" agent="Mozilla/5.0 (X11; Linux x86_64; rv:124.0) Gecko/20100101 Firefox/124.0" etag="Cf7L3qWifXNq2RyuC9rM" version="24.0.3" type="github">
  <diagram id="C5RBs43oDa-KdzZeNtuy" name="Page-1">
    <mxGraphModel dx="880" dy="461" grid="1" gridSize="10" guides="1" tooltips="1" connect="1" arrows="1" fold="1" page="1" pageScale="1" pageWidth="827" pageHeight="1169" math="0" shadow="0">
      <root>
        <mxCell id="WIyWlLk6GJQsqaUBKTNV-0" />
        <mxCell id="WIyWlLk6GJQsqaUBKTNV-1" parent="WIyWlLk6GJQsqaUBKTNV-0" />
        <mxCell id="jBZkMTEzwiifRTvel74y-9" value="" style="group" vertex="1" connectable="0" parent="WIyWlLk6GJQsqaUBKTNV-1">
          <mxGeometry x="146" y="120" width="460" height="290" as="geometry" />
        </mxCell>
        <mxCell id="jBZkMTEzwiifRTvel74y-10" value="SQL Service" style="swimlane;fontStyle=2;align=center;verticalAlign=top;childLayout=stackLayout;horizontal=1;startSize=138;horizontalStack=0;resizeParent=1;resizeLast=0;collapsible=1;marginBottom=0;rounded=0;shadow=0;strokeWidth=1;" vertex="1" parent="jBZkMTEzwiifRTvel74y-9">
          <mxGeometry width="160" height="30" as="geometry">
            <mxRectangle x="230" y="140" width="160" height="26" as="alternateBounds" />
          </mxGeometry>
        </mxCell>
        <mxCell id="jBZkMTEzwiifRTvel74y-11" value="" style="endArrow=open;shadow=0;strokeWidth=1;rounded=0;endFill=1;edgeStyle=elbowEdgeStyle;elbow=vertical;entryX=0.5;entryY=0;entryDx=0;entryDy=0;" edge="1" parent="jBZkMTEzwiifRTvel74y-9" source="jBZkMTEzwiifRTvel74y-10" target="jBZkMTEzwiifRTvel74y-13">
          <mxGeometry x="0.5" y="41" relative="1" as="geometry">
            <mxPoint x="160" y="72" as="sourcePoint" />
            <mxPoint x="288" y="69" as="targetPoint" />
            <mxPoint x="-40" y="32" as="offset" />
          </mxGeometry>
        </mxCell>
        <mxCell id="jBZkMTEzwiifRTvel74y-12" style="edgeStyle=orthogonalEdgeStyle;rounded=0;orthogonalLoop=1;jettySize=auto;html=1;exitX=0.5;exitY=1;exitDx=0;exitDy=0;entryX=0.5;entryY=0;entryDx=0;entryDy=0;endArrow=open;endFill=0;" edge="1" parent="jBZkMTEzwiifRTvel74y-9" source="jBZkMTEzwiifRTvel74y-13" target="jBZkMTEzwiifRTvel74y-15">
          <mxGeometry relative="1" as="geometry" />
        </mxCell>
        <mxCell id="jBZkMTEzwiifRTvel74y-13" value="Databases" style="swimlane;fontStyle=2;align=center;verticalAlign=top;childLayout=stackLayout;horizontal=1;startSize=138;horizontalStack=0;resizeParent=1;resizeLast=0;collapsible=1;marginBottom=0;rounded=0;shadow=0;strokeWidth=1;" vertex="1" parent="jBZkMTEzwiifRTvel74y-9">
          <mxGeometry x="114" y="80" width="160" height="30" as="geometry">
            <mxRectangle x="230" y="140" width="160" height="26" as="alternateBounds" />
          </mxGeometry>
        </mxCell>
        <mxCell id="jBZkMTEzwiifRTvel74y-14" style="edgeStyle=orthogonalEdgeStyle;rounded=0;orthogonalLoop=1;jettySize=auto;html=1;exitX=0.5;exitY=1;exitDx=0;exitDy=0;entryX=0;entryY=0.5;entryDx=0;entryDy=0;endArrow=open;endFill=0;" edge="1" parent="jBZkMTEzwiifRTvel74y-9" source="jBZkMTEzwiifRTvel74y-15" target="jBZkMTEzwiifRTvel74y-16">
          <mxGeometry relative="1" as="geometry" />
        </mxCell>
        <mxCell id="jBZkMTEzwiifRTvel74y-15" value="Tables" style="swimlane;fontStyle=2;align=center;verticalAlign=top;childLayout=stackLayout;horizontal=1;startSize=138;horizontalStack=0;resizeParent=1;resizeLast=0;collapsible=1;marginBottom=0;rounded=0;shadow=0;strokeWidth=1;" vertex="1" parent="jBZkMTEzwiifRTvel74y-9">
          <mxGeometry x="114" y="140" width="160" height="30" as="geometry">
            <mxRectangle x="230" y="140" width="160" height="26" as="alternateBounds" />
          </mxGeometry>
        </mxCell>
        <mxCell id="jBZkMTEzwiifRTvel74y-16" value="Columns" style="swimlane;fontStyle=2;align=center;verticalAlign=top;childLayout=stackLayout;horizontal=1;startSize=138;horizontalStack=0;resizeParent=1;resizeLast=0;collapsible=1;marginBottom=0;rounded=0;shadow=0;strokeWidth=1;" vertex="1" parent="jBZkMTEzwiifRTvel74y-9">
          <mxGeometry x="300" y="200" width="160" height="30" as="geometry">
            <mxRectangle x="230" y="140" width="160" height="26" as="alternateBounds" />
          </mxGeometry>
        </mxCell>
        <mxCell id="jBZkMTEzwiifRTvel74y-17" value="Rows" style="swimlane;fontStyle=2;align=center;verticalAlign=top;childLayout=stackLayout;horizontal=1;startSize=138;horizontalStack=0;resizeParent=1;resizeLast=0;collapsible=1;marginBottom=0;rounded=0;shadow=0;strokeWidth=1;" vertex="1" parent="jBZkMTEzwiifRTvel74y-9">
          <mxGeometry x="300" y="260" width="160" height="30" as="geometry">
            <mxRectangle x="520" y="380" width="160" height="26" as="alternateBounds" />
          </mxGeometry>
        </mxCell>
        <mxCell id="jBZkMTEzwiifRTvel74y-18" style="edgeStyle=orthogonalEdgeStyle;rounded=0;orthogonalLoop=1;jettySize=auto;html=1;exitX=0.5;exitY=1;exitDx=0;exitDy=0;entryX=0;entryY=0.5;entryDx=0;entryDy=0;endArrow=open;endFill=0;" edge="1" parent="jBZkMTEzwiifRTvel74y-9" source="jBZkMTEzwiifRTvel74y-15" target="jBZkMTEzwiifRTvel74y-17">
          <mxGeometry relative="1" as="geometry">
            <mxPoint x="169.9999999999999" y="180" as="sourcePoint" />
            <mxPoint x="275.9999999999999" y="225" as="targetPoint" />
          </mxGeometry>
        </mxCell>
        <mxCell id="jBZkMTEzwiifRTvel74y-19" value="" style="shape=curlyBracket;whiteSpace=wrap;html=1;rounded=1;flipH=1;labelPosition=right;verticalLabelPosition=middle;align=left;verticalAlign=middle;" vertex="1" parent="WIyWlLk6GJQsqaUBKTNV-1">
          <mxGeometry x="612" y="320" width="20" height="90" as="geometry" />
        </mxCell>
        <mxCell id="jBZkMTEzwiifRTvel74y-20" value="&lt;i&gt;Data&lt;/i&gt;" style="text;strokeColor=none;align=center;fillColor=none;html=1;verticalAlign=middle;whiteSpace=wrap;rounded=0;" vertex="1" parent="WIyWlLk6GJQsqaUBKTNV-1">
          <mxGeometry x="622" y="349" width="60" height="30" as="geometry" />
        </mxCell>
      </root>
    </mxGraphModel>
  </diagram>
</mxfile>
